<svg xmlns="http://www.w3.org/2000/svg" width="36.439" height="29.615" viewBox="0 0 36.439 29.615">
  <path id="twitter-3" d="M154.245,164.794a14.971,14.971,0,0,1-4.293,1.176,7.5,7.5,0,0,0,3.287-4.137,14.924,14.924,0,0,1-4.747,1.813,7.48,7.48,0,0,0-12.932,5.119,7.635,7.635,0,0,0,.193,1.7,21.23,21.23,0,0,1-15.409-7.812,7.488,7.488,0,0,0,2.314,9.982,7.458,7.458,0,0,1-3.386-.936v.1a7.48,7.48,0,0,0,6,7.331,7.589,7.589,0,0,1-3.376.128,7.48,7.48,0,0,0,6.984,5.19,15,15,0,0,1-9.285,3.2,15.242,15.242,0,0,1-1.785-.1,21.142,21.142,0,0,0,11.458,3.359c13.753,0,21.272-11.391,21.272-21.27,0-.321-.008-.645-.023-.966a15.2,15.2,0,0,0,3.728-3.868Z" transform="translate(-117.806 -161.288)"/>
</svg>
