<svg xmlns="http://www.w3.org/2000/svg" width="42.292" height="26.785" viewBox="0 0 42.292 26.785">
  <path id="behance" d="M17.568,106.161s4-.3,4-4.99-3.274-6.984-7.422-6.984H.5v26.229H14.149s8.332.263,8.332-7.741C22.48,112.673,22.844,106.161,17.568,106.161Zm-4.4-7.313h.982s1.855,0,1.855,2.729-1.091,3.124-2.329,3.124H6.514V98.848Zm.6,16.905H6.514v-7.009h7.635s2.765-.036,2.765,3.6C16.914,115.414,14.848,115.73,13.763,115.753Zm19.83-14.894c-10.087,0-10.078,10.078-10.078,10.078s-.692,10.026,10.078,10.026c0,0,8.975.513,8.975-6.975H37.952s.154,2.82-4.205,2.82a4.266,4.266,0,0,1-4.616-4.563H42.721S44.208,100.859,33.592,100.859Zm-4.513,7.884s.564-4.043,4.616-4.043,4,4.043,4,4.043Zm9.691-9.783H27.949v-3.23H38.771v3.23Z" transform="translate(-0.5 -94.186)"/>
</svg>
