<svg xmlns="http://www.w3.org/2000/svg" width="31.555" height="31.555" viewBox="0 0 31.555 31.555">
  <path id="dribbble-icon_1_" data-name="dribbble-icon (1)" d="M0,15.777a15.456,15.456,0,0,1,2.114-7.92A15.665,15.665,0,0,1,7.857,2.114,15.455,15.455,0,0,1,15.777,0,15.455,15.455,0,0,1,23.7,2.114,15.665,15.665,0,0,1,29.44,7.857a15.455,15.455,0,0,1,2.114,7.92A15.455,15.455,0,0,1,29.44,23.7,15.665,15.665,0,0,1,23.7,29.44a15.455,15.455,0,0,1-7.92,2.114,15.455,15.455,0,0,1-7.92-2.114A15.665,15.665,0,0,1,2.114,23.7,15.456,15.456,0,0,1,0,15.777Zm2.619,0a12.723,12.723,0,0,0,3.313,8.678,18.057,18.057,0,0,1,4.8-5.648,15.687,15.687,0,0,1,6.406-3.376q-.473-1.1-.915-1.988A38.34,38.34,0,0,1,4.481,15.178q-1.231,0-1.83-.032,0,.126-.016.316T2.619,15.777Zm.41-3.25q.694.063,2.051.063a34.631,34.631,0,0,0,10-1.42,31.951,31.951,0,0,0-5.27-7.1,12.81,12.81,0,0,0-4.276,3.5A13.472,13.472,0,0,0,3.029,12.527Zm4.7,13.632a12.894,12.894,0,0,0,12.685,1.893,46.334,46.334,0,0,0-2.461-10.445A13.458,13.458,0,0,0,12.1,20.794,17.9,17.9,0,0,0,7.731,26.159Zm4.828-23.1A33.533,33.533,0,0,1,17.7,10.224a15.715,15.715,0,0,0,6.469-4.575,12.791,12.791,0,0,0-8.394-3.029A12.112,12.112,0,0,0,12.559,3.061Zm6.279,9.4q.473,1.01,1.073,2.556,2.335-.221,5.08-.221,1.956,0,3.881.095A12.668,12.668,0,0,0,25.78,7.258Q23.729,10.318,18.838,12.464ZM20.7,17.229a45.291,45.291,0,0,1,2.177,9.593,13.166,13.166,0,0,0,4.071-4.134,12.745,12.745,0,0,0,1.893-5.459q-2.3-.158-4.2-.158Q22.909,17.071,20.7,17.229Z"/>
</svg>
